<svg width="60" height="60" viewBox="0 0 60 60" fill="none" xmlns="http://www.w3.org/2000/svg">
<path d="M0 0V60H60V0H0ZM30 59.928C13.47 59.928 0.072 46.53 0.072 30C0.072 13.47 13.47 0.072 30 0.072C46.53 0.072 59.928 13.47 59.928 30C59.928 46.53 46.53 59.928 30 59.928Z" fill="white"/>
<path d="M46.6199 16.2991L41.3549 30.3511H34.6289L38.0369 39.2491H38.3429L46.9409 16.2991H46.6199Z" fill="white"/>
<path d="M25.6195 22.035L19.3555 39.249V44.901H21.6505V39.249H31.9405L25.6195 22.035Z" fill="white"/>
<path d="M27.7046 16.2991L26.5586 19.4521L33.8126 39.2491H36.2906L27.7046 16.2991Z" fill="white"/>
</svg>
